<svg xmlns="http://www.w3.org/2000/svg" width="139.556" height="44.467" viewBox="0 0 139.556 44.467">
  <g id="coupon-bg" transform="translate(-1861.949 -1274.393)">
    <path id="Path_109" data-name="Path 109" d="M1949.712,1295.66a7.793,7.793,0,0,1,7.793-7.793v-2.229a2.037,2.037,0,0,1,0-4.073v-1.635a2.037,2.037,0,0,1,0-4.073v-1.929h-93.556v1.929h.041a2.038,2.038,0,1,1,0,4.075h-.041v1.635h.041a2.038,2.038,0,1,1,0,4.075h-.041v2.229a7.793,7.793,0,1,1,0,15.586v2.229h.041a2.038,2.038,0,0,1,0,4.075h-.041v1.636h.041a2.038,2.038,0,0,1,0,4.075h-.041v1.929h93.556v-1.929a2.037,2.037,0,0,1,0-4.073v-1.636a2.037,2.037,0,0,1,0-4.073v-2.229A7.793,7.793,0,0,1,1949.712,1295.66Z" transform="translate(-1.5 0.967)" fill="#c2ffa4" stroke="#56e112" stroke-width="1"/>
    <path id="Path_110" data-name="Path 110" d="M1949.712,1295.66a7.793,7.793,0,0,1,7.793-7.793v-2.229a2.037,2.037,0,0,1,0-4.073v-1.635a2.037,2.037,0,0,1,0-4.073v-1.929h-93.556v1.929h.041a2.038,2.038,0,1,1,0,4.075h-.041v1.635h.041a2.038,2.038,0,1,1,0,4.075h-.041v2.229a7.793,7.793,0,1,1,0,15.586v2.229h.041a2.038,2.038,0,0,1,0,4.075h-.041v1.636h.041a2.038,2.038,0,0,1,0,4.075h-.041v1.929h93.556v-1.929a2.037,2.037,0,0,1,0-4.073v-1.636a2.037,2.037,0,0,1,0-4.073v-2.229A7.793,7.793,0,0,1,1949.712,1295.66Z" transform="translate(43.5 0.967)" fill="#c2ffa4" stroke="#56e112" stroke-width="1"/>
    <path id="Path_111" data-name="Path 111" d="M1898.782,1276.225h18.667V1318.6h-21.333v-39.972Z" transform="translate(0 -0.833)" fill="#c2ffa4"/>
  </g>
</svg>
