<svg xmlns="http://www.w3.org/2000/svg" width="234.76" height="93.39" viewBox="0 0 234.76 93.39">
  <g id="logo" transform="translate(-14.37 -3.58)">
    <path id="Path_1" data-name="Path 1" d="M207.71,3.98l-2.16,31.8L216.59,5.54Z" fill="#c8202d"/>
    <path id="Path_2" data-name="Path 2" d="M224.74,9.42,210.76,38.07l21.62-23.86Z" fill="#c8202d"/>
    <path id="Path_3" data-name="Path 3" d="M238.81,21.31l-24,20.98,29.18-13.61Z" fill="#c8202d"/>
    <path id="Path_4" data-name="Path 4" d="M247.31,38.26l-30.37,9.68,32.19-.85Z" fill="#c8202d"/>
    <path id="Path_5" data-name="Path 5" d="M248.54,55.87l-31.79-2.32,30.19,11.19Z" fill="#c8202d"/>
    <path id="Path_6" data-name="Path 6" d="M242.73,73.36,214.33,58.9l23.48,22.02Z" fill="#c8202d"/>
    <path id="Path_7" data-name="Path 7" d="M231.08,86.86,210.2,62.78l13.48,29.23Z" fill="#c8202d"/>
    <path id="Path_8" data-name="Path 8" d="M215.34,94.95,204.95,64.82l1.61,32.15Z" fill="#c8202d"/>
    <path id="Path_9" data-name="Path 9" d="M197.51,96.57l1.74-31.83L188.61,95.12Z" fill="#c8202d"/>
    <path id="Path_10" data-name="Path 10" d="M180.61,91.45l13.47-28.89L172.89,86.8Z" fill="#c8202d"/>
    <path id="Path_11" data-name="Path 11" d="M166.4,79.9l23.56-21.46L161.07,72.63Z" fill="#c8202d"/>
    <path id="Path_12" data-name="Path 12" d="M157.82,64.02l29.95-10.89-32.12,2.14Z" fill="#c8202d"/>
    <path id="Path_13" data-name="Path 13" d="M155.92,46.09l31.84,1.3L157.24,37.17Z" fill="#c8202d"/>
    <path id="Path_14" data-name="Path 14" d="M161.1,28.52,189.99,42,165.76,20.8Z" fill="#c8202d"/>
    <path id="Path_15" data-name="Path 15" d="M172.85,14.16l21.33,23.69L180.15,8.87Z" fill="#c8202d"/>
    <path id="Path_16" data-name="Path 16" d="M188.54,5.75,199.42,35.7,197.29,3.58Z" fill="#c8202d"/>
    <path id="Path_17" data-name="Path 17" d="M137.31,3.98l-2.16,31.8L146.19,5.54Z" fill="#314a9d"/>
    <path id="Path_18" data-name="Path 18" d="M154.34,9.42,140.36,38.07l21.61-23.86Z" fill="#314a9d"/>
    <path id="Path_19" data-name="Path 19" d="M168.41,21.31l-24,20.98,29.18-13.61Z" fill="#314a9d"/>
    <path id="Path_20" data-name="Path 20" d="M176.91,38.26l-30.37,9.68,32.19-.85Z" fill="#314a9d"/>
    <path id="Path_21" data-name="Path 21" d="M178.14,55.87l-31.79-2.32,30.18,11.19Z" fill="#314a9d"/>
    <path id="Path_22" data-name="Path 22" d="M172.33,73.36,143.93,58.9l23.48,22.02Z" fill="#314a9d"/>
    <path id="Path_23" data-name="Path 23" d="M160.68,86.86,139.8,62.78l13.48,29.23Z" fill="#314a9d"/>
    <path id="Path_24" data-name="Path 24" d="M144.94,94.95,134.55,64.82l1.61,32.15Z" fill="#314a9d"/>
    <path id="Path_25" data-name="Path 25" d="M127.11,96.57l1.74-31.83L118.21,95.12Z" fill="#314a9d"/>
    <path id="Path_26" data-name="Path 26" d="M110.21,91.45l13.47-28.89L102.49,86.8Z" fill="#314a9d"/>
    <path id="Path_27" data-name="Path 27" d="M96,79.9l23.56-21.46L90.67,72.63Z" fill="#314a9d"/>
    <path id="Path_28" data-name="Path 28" d="M87.42,64.02l29.95-10.89L85.25,55.27Z" fill="#314a9d"/>
    <path id="Path_29" data-name="Path 29" d="M85.52,46.09l31.84,1.3L86.84,37.17Z" fill="#314a9d"/>
    <path id="Path_30" data-name="Path 30" d="M90.7,28.52,119.59,42,95.36,20.8Z" fill="#314a9d"/>
    <path id="Path_31" data-name="Path 31" d="M102.45,14.16l21.33,23.69L109.75,8.87Z" fill="#314a9d"/>
    <path id="Path_32" data-name="Path 32" d="M118.14,5.75,129.02,35.7,126.89,3.58Z" fill="#314a9d"/>
    <path id="Path_33" data-name="Path 33" d="M66.42,3.98l-2.15,31.8L75.31,5.54Z" fill="#2c9446"/>
    <path id="Path_34" data-name="Path 34" d="M83.45,9.42,69.47,38.07,91.09,14.21Z" fill="#2c9446"/>
    <path id="Path_35" data-name="Path 35" d="M97.52,21.31,73.53,42.29l29.18-13.61Z" fill="#2c9446"/>
    <path id="Path_36" data-name="Path 36" d="M106.03,38.26,75.66,47.94l32.18-.85Z" fill="#2c9446"/>
    <path id="Path_37" data-name="Path 37" d="M107.26,55.87,75.47,53.55l30.18,11.19Z" fill="#2c9446"/>
    <path id="Path_38" data-name="Path 38" d="M101.45,73.36,73.05,58.9,96.53,80.92Z" fill="#2c9446"/>
    <path id="Path_39" data-name="Path 39" d="M89.8,86.86,68.92,62.78,82.4,92.01Z" fill="#2c9446"/>
    <path id="Path_40" data-name="Path 40" d="M74.06,94.95,63.67,64.82l1.6,32.15Z" fill="#2c9446"/>
    <path id="Path_41" data-name="Path 41" d="M56.23,96.57l1.74-31.83L47.33,95.12Z" fill="#2c9446"/>
    <path id="Path_42" data-name="Path 42" d="M39.33,91.45,52.8,62.56,31.61,86.8Z" fill="#2c9446"/>
    <path id="Path_43" data-name="Path 43" d="M25.12,79.9,48.68,58.44,19.79,72.63Z" fill="#2c9446"/>
    <path id="Path_44" data-name="Path 44" d="M16.54,64.02,46.49,53.13,14.37,55.27Z" fill="#2c9446"/>
    <path id="Path_45" data-name="Path 45" d="M14.64,46.09l31.84,1.3L15.96,37.17Z" fill="#2c9446"/>
    <path id="Path_46" data-name="Path 46" d="M19.82,28.52,48.7,42,24.48,20.8Z" fill="#2c9446"/>
    <path id="Path_47" data-name="Path 47" d="M31.57,14.16,52.9,37.85,38.87,8.87Z" fill="#2c9446"/>
    <path id="Path_48" data-name="Path 48" d="M47.26,5.75,58.14,35.7,56.01,3.58Z" fill="#2c9446"/>
  </g>
</svg>
