<?xml version="1.0" encoding="utf-8"?> 
<svg version="1.1" xmlns="http://www.w3.org/2000/svg" xmlns:xlink="http://www.w3.org/1999/xlink" xml:space="preserve" >
  



<symbol xmlns="http://www.w3.org/2000/svg" id="languagec_icon" viewBox="0 0 16 16">
  <path id="Icon_material-language" data-name="Icon material-language" d="M10.992,3A8,8,0,1,0,19,11,8,8,0,0,0,10.992,3Zm5.544,4.8h-2.36a12.519,12.519,0,0,0-1.1-2.848A6.424,6.424,0,0,1,16.536,7.8ZM11,4.632A11.269,11.269,0,0,1,12.528,7.8H9.472A11.269,11.269,0,0,1,11,4.632ZM4.808,12.6a6.258,6.258,0,0,1,0-3.2h2.7A13.212,13.212,0,0,0,7.4,11a13.212,13.212,0,0,0,.112,1.6Zm.656,1.6h2.36a12.519,12.519,0,0,0,1.1,2.848A6.389,6.389,0,0,1,5.464,14.2Zm2.36-6.4H5.464A6.389,6.389,0,0,1,8.928,4.952,12.519,12.519,0,0,0,7.824,7.8ZM11,17.368A11.269,11.269,0,0,1,9.472,14.2h3.056A11.269,11.269,0,0,1,11,17.368ZM12.872,12.6H9.128A11.77,11.77,0,0,1,9,11a11.668,11.668,0,0,1,.128-1.6h3.744A11.668,11.668,0,0,1,13,11,11.77,11.77,0,0,1,12.872,12.6Zm.2,4.448a12.519,12.519,0,0,0,1.1-2.848h2.36a6.424,6.424,0,0,1-3.464,2.848ZM14.488,12.6A13.212,13.212,0,0,0,14.6,11a13.212,13.212,0,0,0-.112-1.6h2.7a6.258,6.258,0,0,1,0,3.2Z" transform="translate(-3 -3)" />
</symbol>

<symbol xmlns="http://www.w3.org/2000/svg" id="useradmin_icon" viewBox="0 0 15 15">
  <path id="Icon_awesome-user-alt" data-name="Icon awesome-user-alt" d="M7.5,8.438A4.219,4.219,0,1,0,3.281,4.219,4.22,4.22,0,0,0,7.5,8.438Zm3.75.938H9.636a5.1,5.1,0,0,1-4.271,0H3.75A3.75,3.75,0,0,0,0,13.125v.469A1.407,1.407,0,0,0,1.406,15H13.594A1.407,1.407,0,0,0,15,13.594v-.469A3.75,3.75,0,0,0,11.25,9.375Z" />
</symbol>

<symbol id="cart_icon_white" data-name="Icon feather-shopping-cart" xmlns="http://www.w3.org/2000/svg" width="30.762" height="29.5" viewBox="0 0 30.762 29.5">
  <path id="Path_4" data-name="Path 4" d="M14.524,31.262A1.262,1.262,0,1,1,13.262,30,1.262,1.262,0,0,1,14.524,31.262Z" transform="translate(-1.667 -4.524)" fill="none" stroke="#fff" stroke-linecap="round" stroke-linejoin="round" stroke-width="3"/>
  <path id="Path_5" data-name="Path 5" d="M31.024,31.262A1.262,1.262,0,1,1,29.762,30,1.262,1.262,0,0,1,31.024,31.262Z" transform="translate(-4.286 -4.524)" fill="none" stroke="#fff" stroke-linecap="round" stroke-linejoin="round" stroke-width="3"/>
  <path id="Path_6" data-name="Path 6" d="M1.5,1.5H6.548L9.93,18.4a2.524,2.524,0,0,0,2.524,2.032H24.719A2.524,2.524,0,0,0,27.243,18.4L29.262,7.81H7.81" fill="none" stroke="#fff" stroke-linecap="round" stroke-linejoin="round" stroke-width="3"/>
</symbol>


<symbol xmlns="http://www.w3.org/2000/svg" id="heart_white_icon" viewBox="0 0 28.032 24.833">
  <path id="Icon_feather-heart" data-name="Icon feather-heart" d="M25.425,6.427a6.586,6.586,0,0,0-9.317,0L14.839,7.7,13.57,6.427a6.588,6.588,0,1,0-9.317,9.317l1.269,1.269,9.317,9.317,9.317-9.317,1.269-1.269a6.586,6.586,0,0,0,0-9.317Z" transform="translate(-0.823 -2.997)" fill="none" stroke="#fff" stroke-linecap="round" stroke-linejoin="round" stroke-width="3"/>
</symbol>

<symbol xmlns="http://www.w3.org/2000/svg" id="check_line_icon" viewBox="0 0 30 30">
  <g id="check-line" transform="translate(-130 -3447)">
    <g id="Ellipse_36" data-name="Ellipse 36" transform="translate(130 3447)" fill="none" stroke="#4a64e5" stroke-width="1">
      <circle cx="15" cy="15" r="15" stroke="none"/>
      <circle cx="15" cy="15" r="14.5" fill="none"/>
    </g>
    <path id="Path_7891" data-name="Path 7891" d="M1610,3529l5.7,5.7,10.108-10.108" transform="translate(-1472.5 -68.093)" fill="none" stroke="#4a64e5" stroke-linecap="round" stroke-width="2"/>
  </g>
</symbol>


<symbol xmlns="http://www.w3.org/2000/svg" id="email_white_line" viewBox="0 0 79.25 64">
  <path id="Icon_material-email" data-name="Icon material-email" d="M71.625,6h-61a7.615,7.615,0,0,0-7.587,7.625L3,59.375A7.647,7.647,0,0,0,10.625,67h61a7.647,7.647,0,0,0,7.625-7.625V13.625A7.647,7.647,0,0,0,71.625,6Zm0,15.25-30.5,19.063L10.625,21.25V13.625l30.5,19.063,30.5-19.062Z" transform="translate(-1.5 -4.5)" fill="none" stroke="#fff" stroke-width="3"/>
</symbol>


<symbol xmlns="http://www.w3.org/2000/svg" id="footer_android_icon" viewBox="0 0 16.8 20.16">
  <path id="Icon_material-android" data-name="Icon material-android" d="M6.36,15.12a.842.842,0,0,0,.84.84h.84V18.9a1.26,1.26,0,0,0,2.52,0V15.96h1.68V18.9a1.26,1.26,0,0,0,2.52,0V15.96h.84a.842.842,0,0,0,.84-.84V6.72H6.36Zm-2.1-8.4A1.258,1.258,0,0,0,3,7.98v5.88a1.26,1.26,0,1,0,2.52,0V7.98A1.258,1.258,0,0,0,4.26,6.72Zm14.28,0a1.258,1.258,0,0,0-1.26,1.26v5.88a1.26,1.26,0,0,0,2.52,0V7.98A1.258,1.258,0,0,0,18.54,6.72ZM14.365,1.814,15.457.722a.416.416,0,0,0,0-.6.416.416,0,0,0-.6,0L13.618,1.369A4.905,4.905,0,0,0,11.4.84a4.976,4.976,0,0,0-2.234.529L7.914.126a.416.416,0,0,0-.6,0,.416.416,0,0,0,0,.6l1.1,1.1A5.026,5.026,0,0,0,6.36,5.88H16.44A5.011,5.011,0,0,0,14.365,1.814ZM9.72,4.2H8.88V3.36h.84Zm4.2,0h-.84V3.36h.84Z" transform="translate(-3)" fill="#7388f5"/>
</symbol>


<symbol xmlns="http://www.w3.org/2000/svg" id="footer_ios_icon" viewBox="0 0 13.87 16.506">
  <path id="Icon_awesome-apple" data-name="Icon awesome-apple" d="M11.878,10.972a3.44,3.44,0,0,1,1.843-3.125A3.959,3.959,0,0,0,10.6,6.2c-1.308-.1-2.738.763-3.261.763-.553,0-1.82-.726-2.815-.726C2.466,6.274.281,7.881.281,11.149a9.185,9.185,0,0,0,.531,2.992c.472,1.352,2.174,4.669,3.95,4.614.929-.022,1.585-.66,2.793-.66,1.172,0,1.78.66,2.815.66,1.791-.026,3.331-3.04,3.781-4.4a3.653,3.653,0,0,1-2.274-3.387ZM9.792,4.922a3.471,3.471,0,0,0,.884-2.672,3.907,3.907,0,0,0-2.5,1.286,3.525,3.525,0,0,0-.943,2.65A3.1,3.1,0,0,0,9.792,4.922Z" transform="translate(-0.281 -2.25)" fill="#7388f5"/>
</symbol>

<symbol xmlns="http://www.w3.org/2000/svg" id="close_popup_icon" viewBox="0 0 14.339 14.339">
  <g id="close-popup" transform="translate(-1002.586 -175.086)">
    <path id="Path_42" data-name="Path 42" d="M994,180.5l11.511,11.511" transform="translate(10 -4)" fill="none" stroke="#d2d2d2" stroke-linecap="round" stroke-width="2"/>
    <path id="Path_43" data-name="Path 43" d="M1005.511,180.5,994,192.011" transform="translate(10 -4)" fill="none" stroke="#d2d2d2" stroke-linecap="round" stroke-width="2"/>
  </g>
</symbol>

<symbol xmlns="http://www.w3.org/2000/svg" id="supplier_Red_icon" viewBox="0 0 15.125 15.125">
  <path id="supp-icon" d="M7.563.563a7.563,7.563,0,1,0,7.563,7.563A7.561,7.561,0,0,0,7.563.563Zm0,2.927A2.683,2.683,0,1,1,4.879,6.173,2.684,2.684,0,0,1,7.563,3.49Zm0,10.49A5.843,5.843,0,0,1,3.1,11.9a3.4,3.4,0,0,1,3-1.824.746.746,0,0,1,.217.034,4.037,4.037,0,0,0,1.247.21,4.022,4.022,0,0,0,1.247-.21.746.746,0,0,1,.217-.034,3.4,3.4,0,0,1,3,1.824A5.843,5.843,0,0,1,7.563,13.98Z" transform="translate(0 -0.563)" fill="#d21e25"/>
</symbol>


<symbol xmlns="http://www.w3.org/2000/svg" xmlns:xlink="http://www.w3.org/1999/xlink" id="100_gurantee_icon" viewBox="0 0 37 37">
  <defs>
    <clipPath id="clip-path">
      <rect id="Rectangle_2270" data-name="Rectangle 2270" width="37" height="37" transform="translate(736 774)" fill="#fff" stroke="#707070" stroke-width="1"/>
    </clipPath>
    <linearGradient id="linear-gradient" x1="0.049" y1="0.531" x2="1.049" y2="0.531" gradientUnits="objectBoundingBox">
      <stop offset="0.026" stop-color="#c3a237"/>
      <stop offset="0.287" stop-color="#e5d083"/>
      <stop offset="0.492" stop-color="#ddc15e"/>
      <stop offset="0.696" stop-color="#ede0ab"/>
      <stop offset="0.857" stop-color="#ddc15e"/>
    </linearGradient>
    <linearGradient id="linear-gradient-2" y1="0.5" x2="1" y2="0.5" gradientUnits="objectBoundingBox">
      <stop offset="0" stop-color="#9e9e9e"/>
      <stop offset="1" stop-color="#545454"/>
    </linearGradient>
  </defs>
  <g id="_100-grnt" data-name="100-grnt" transform="translate(-736 -774)" clip-path="url(#clip-path)">
    <g id="Group_10294" data-name="Group 10294" transform="translate(490.72 501.324)">
      <circle id="Ellipse_11" data-name="Ellipse 11" cx="17.401" cy="17.401" r="17.401" transform="translate(239.279 291.285) rotate(-45)" fill="#a5a5a5" style="mix-blend-mode: multiply;isolation: isolate"/>
      <circle id="Ellipse_12" data-name="Ellipse 12" cx="17.401" cy="17.401" r="17.401" transform="translate(246.562 273.35)" fill="url(#linear-gradient)"/>
      <circle id="Ellipse_13" data-name="Ellipse 13" cx="15.601" cy="15.601" r="15.601" transform="translate(245.103 302.22) rotate(-76.273)" opacity="0.32" fill="url(#linear-gradient-2)" style="mix-blend-mode: multiply;isolation: isolate"/>
      <circle id="Ellipse_14" data-name="Ellipse 14" cx="15.179" cy="15.179" r="15.179" transform="translate(248.782 275.588)" fill="#1933b7"/>
      <g id="Group_83" data-name="Group 83" transform="translate(252.336 285.4)">
        <text id="_100_" data-name="100%" transform="translate(0 8.199)" fill="#fff" font-size="8" font-family="SegoeUI, Segoe UI" style="mix-blend-mode: multiply;isolation: isolate"><tspan x="0" y="0">100%</tspan></text>
        <text id="_100_2" data-name="100%" transform="translate(3 8)" fill="#fff" font-size="8" font-family="SegoeUI, Segoe UI"><tspan x="0" y="0">100%</tspan></text>
      </g>
      <text id="SATISFACTION" transform="translate(255.607 285.208)" fill="#fff" font-size="3" font-family="SegoeUI, Segoe UI"><tspan x="0" y="0">SATISFACTION</tspan></text>
      <text id="GUARANTEE" transform="translate(252.869 299.13)" fill="#fff" font-size="4" font-family="SegoeUI, Segoe UI"><tspan x="0" y="0">GUARANTEE</tspan></text>
      <g id="Group_85" data-name="Group 85" transform="translate(250.256 276.725)">
        <g id="Group_84" data-name="Group 84" transform="translate(0 0)">
          <path id="Path_48" data-name="Path 48" d="M292.969,362.317a.375.375,0,0,1,.044.283.458.458,0,0,1-.282.27c0,.008,0,.018-.007.031a.568.568,0,0,1-.4.4.541.541,0,0,1-.533-.148.569.569,0,0,1-.134-.545.567.567,0,0,1,.147-.253.555.555,0,0,1,.248-.145.525.525,0,0,1,.286,0,.532.532,0,0,1,.224.124.564.564,0,0,1,.178.465.668.668,0,0,0,.143-.1.264.264,0,0,0,.069-.114.347.347,0,0,0-.043-.243Zm-.657.915a.5.5,0,0,0,.221-.127.5.5,0,0,0,.133-.48.5.5,0,0,0-.123-.223.47.47,0,0,0-.218-.13.463.463,0,0,0-.253,0,.5.5,0,0,0-.23.83.462.462,0,0,0,.217.13A.47.47,0,0,0,292.311,363.233Z" transform="translate(-291.638 -352.214)" fill="#fff"/>
          <path id="Path_49" data-name="Path 49" d="M294.209,356.442a.429.429,0,0,0,.2-.514.386.386,0,0,0-.227-.2l-.6-.238.024-.061.6.238a.452.452,0,0,1,.265.229.506.506,0,0,1-.239.6.448.448,0,0,1-.349-.013l-.6-.238.024-.061.6.238A.387.387,0,0,0,294.209,356.442Z" transform="translate(-292.937 -346.875)" fill="#fff"/>
          <path id="Path_50" data-name="Path 50" d="M297.817,351.491l-.341-.014-.29.568.213.266-.033.064-.747-.936.032-.063,1.2.051Zm-.677.5.264-.517-.7-.031Z" transform="translate(-295.575 -343.669)" fill="#fff"/>
          <path id="Path_51" data-name="Path 51" d="M298.913,347.295l.034-.056.873.54.255-.413.055.034-.289.468Z" transform="translate(-297.388 -340.399)" fill="#fff"/>
          <path id="Path_52" data-name="Path 52" d="M301.461,343.373l.038-.054.893.626-.038.054Z" transform="translate(-299.402 -337.301)" fill="#fff"/>
          <path id="Path_53" data-name="Path 53" d="M302.787,339.324l.5-.628.05.04-.229.288.8.638-.041.051-.8-.638-.229.288Z" transform="translate(-300.45 -333.647)" fill="#fff"/>
          <path id="Path_54" data-name="Path 54" d="M306.566,334.531l.213.786.292.272-.044.047-.29-.27-.806-.153.048-.051.72.126-.181-.706Z" transform="translate(-302.935 -330.355)" fill="#fff"/>
          <path id="Path_55" data-name="Path 55" d="M313.311,329.276a.331.331,0,0,1,.253.135.343.343,0,0,1,.09.28.458.458,0,0,1-.178.272l-.245.2.232.28-.051.042-.695-.841.3-.245A.466.466,0,0,1,313.311,329.276Zm.277.408a.276.276,0,0,0-.071-.232.268.268,0,0,0-.212-.11.41.41,0,0,0-.253.11l-.244.2.382.462.244-.2A.4.4,0,0,0,313.587,329.684Z" transform="translate(-308.297 -326.202)" fill="#fff"/>
          <path id="Path_56" data-name="Path 56" d="M318.675,326.57l-.421-.16a.554.554,0,0,1-.072.057l-.264.181.2.3-.054.037-.615-.9.318-.218a.469.469,0,0,1,.311-.1.329.329,0,0,1,.24.157.365.365,0,0,1,.072.227.346.346,0,0,1-.1.214l.44.161Zm-.529-.157a.4.4,0,0,0,.175-.213.278.278,0,0,0-.05-.238.269.269,0,0,0-.2-.129.408.408,0,0,0-.262.086l-.265.181.338.495Z" transform="translate(-312.041 -323.427)" fill="#fff"/>
          <path id="Path_57" data-name="Path 57" d="M323.92,322.326a.559.559,0,0,1,.277.077.545.545,0,0,1,.265.486.57.57,0,0,1-.859.468.535.535,0,0,1-.2-.207.526.526,0,0,1-.066-.279.553.553,0,0,1,.085-.275.578.578,0,0,1,.5-.271Zm-.441.3a.5.5,0,0,0-.075.243.481.481,0,0,0,.234.43.5.5,0,0,0,.245.07.5.5,0,0,0,.437-.238.5.5,0,0,0,.074-.244.479.479,0,0,0-.234-.43.5.5,0,0,0-.682.17Z" transform="translate(-316.692 -320.708)" fill="#fff"/>
          <path id="Path_58" data-name="Path 58" d="M330.01,319.4a.544.544,0,0,1,.264.105.528.528,0,0,1,.174.226.523.523,0,0,1,.036.282.537.537,0,0,1-.113.261.568.568,0,0,1-.233.175l-.4.166-.418-1.007.4-.166A.566.566,0,0,1,330.01,319.4Zm.309.835a.493.493,0,0,0,.1-.23.476.476,0,0,0-.186-.447.5.5,0,0,0-.487-.057l-.339.141.369.889.34-.141A.49.49,0,0,0,330.319,320.23Z" transform="translate(-321.421 -318.39)" fill="#fff"/>
          <path id="Path_59" data-name="Path 59" d="M336.3,317.737a.43.43,0,0,0,.53-.158.388.388,0,0,0,.014-.3l-.185-.622.063-.018.185.622a.453.453,0,0,1-.016.349.507.507,0,0,1-.623.186.449.449,0,0,1-.206-.283l-.185-.622.063-.019.185.622A.388.388,0,0,0,336.3,317.737Z" transform="translate(-326.602 -316.214)" fill="#fff"/>
          <path id="Path_60" data-name="Path 60" d="M343.18,315.57a.49.49,0,0,0-.189,0,.5.5,0,0,0-.234.112.488.488,0,0,0-.144.209.479.479,0,0,0,.093.481.5.5,0,0,0,.646.088.52.52,0,0,0,.137-.127l.048.037a.565.565,0,0,1-.88.046.544.544,0,0,1-.106-.544.569.569,0,0,1,.637-.364.579.579,0,0,1,.195.074l-.029.056A.511.511,0,0,0,343.18,315.57Z" transform="translate(-331.853 -315.313)" fill="#fff"/>
          <path id="Path_61" data-name="Path 61" d="M348.042,314.7l.8-.086.007.064-.366.039.11,1.021-.065.007-.11-1.021-.366.039Z" transform="translate(-336.218 -314.612)" fill="#fff"/>
          <path id="Path_62" data-name="Path 62" d="M363.348,316.1a.377.377,0,0,1-.273.087.46.46,0,0,1-.309-.238l-.031,0a.568.568,0,0,1-.453-.333.544.544,0,0,1,.066-.549.557.557,0,0,1,.228-.175.578.578,0,0,1,.562.067.555.555,0,0,1,.181.223.525.525,0,0,1,.042.283.531.531,0,0,1-.089.24.562.562,0,0,1-.187.173.555.555,0,0,1-.245.073.655.655,0,0,0,.125.126.264.264,0,0,0,.123.052.347.347,0,0,0,.234-.079Zm-1-.512a.5.5,0,0,0,.159.2.5.5,0,0,0,.7-.1.47.47,0,0,0,.1-.235.463.463,0,0,0-.038-.251.5.5,0,0,0-.855-.1.479.479,0,0,0-.058.486Z" transform="translate(-347.436 -314.8)" fill="#fff"/>
          <path id="Path_63" data-name="Path 63" d="M369.6,316.6a.43.43,0,0,0,.539.122.388.388,0,0,0,.159-.254l.143-.633.064.014-.143.633a.45.45,0,0,1-.185.3.507.507,0,0,1-.634-.143.448.448,0,0,1-.041-.347l.143-.633.064.015-.143.633A.388.388,0,0,0,369.6,316.6Z" transform="translate(-353.168 -315.438)" fill="#fff"/>
          <path id="Path_64" data-name="Path 64" d="M375.428,318.976l-.038-.339-.606-.2-.23.251-.068-.022.81-.882.067.022L375.5,319Zm-.6-.592.552.181-.078-.7Z" transform="translate(-357.117 -317.119)" fill="#fff"/>
          <path id="Path_65" data-name="Path 65" d="M381.2,319.4l.06.026-.4.946.447.188-.025.059-.508-.214Z" transform="translate(-362.089 -318.393)" fill="#fff"/>
          <path id="Path_66" data-name="Path 66" d="M385.286,321.323l.059.029-.481.979-.059-.029Z" transform="translate(-365.274 -319.916)" fill="#fff"/>
          <path id="Path_67" data-name="Path 67" d="M388.316,322.333l.7.4-.032.056-.32-.182-.507.893-.057-.033.507-.893-.321-.182Z" transform="translate(-367.876 -320.714)" fill="#fff"/>
          <path id="Path_68" data-name="Path 68" d="M393.334,325.377l-.744.331-.224.331-.053-.036.222-.328.028-.82.058.039-.015.731.669-.287Z" transform="translate(-371.208 -322.707)" fill="#fff"/>
          <path id="Path_69" data-name="Path 69" d="M398.894,331.031a.33.33,0,0,1-.095.271.343.343,0,0,1-.262.131.458.458,0,0,1-.3-.134l-.238-.212-.241.272-.049-.043.724-.815.287.255A.462.462,0,0,1,398.894,331.031Zm-.361.336a.276.276,0,0,0,.219-.105.268.268,0,0,0,.076-.227.408.408,0,0,0-.147-.233l-.237-.21-.4.448.237.21A.4.4,0,0,0,398.533,331.367Z" transform="translate(-375.476 -327.169)" fill="#fff"/>
          <path id="Path_70" data-name="Path 70" d="M402.321,335.9l.094-.44a.6.6,0,0,1-.068-.063l-.218-.234-.266.248-.045-.048.8-.745.264.281a.467.467,0,0,1,.145.292.33.33,0,0,1-.118.262.365.365,0,0,1-.214.106.347.347,0,0,1-.226-.062l-.091.46Zm.074-.546a.4.4,0,0,0,.237.14.277.277,0,0,0,.227-.086.269.269,0,0,0,.1-.218.406.406,0,0,0-.125-.245l-.219-.235-.438.409Z" transform="translate(-378.721 -330.425)" fill="#fff"/>
          <path id="Path_71" data-name="Path 71" d="M407.671,340.575a.561.561,0,0,1-.035.286.543.543,0,0,1-.44.335.57.57,0,0,1-.593-.778.531.531,0,0,1,.174-.228.524.524,0,0,1,.265-.107.554.554,0,0,1,.284.042.577.577,0,0,1,.344.45Zm-.367-.39a.494.494,0,0,0-.251-.037.477.477,0,0,0-.389.3.5.5,0,0,0-.032.253.5.5,0,0,0,.3.4.5.5,0,0,0,.252.036.478.478,0,0,0,.389-.3.5.5,0,0,0-.271-.648Z" transform="translate(-382.47 -334.74)" fill="#fff"/>
          <path id="Path_72" data-name="Path 72" d="M411.038,345.966a.543.543,0,0,1-.064.277.528.528,0,0,1-.2.207.522.522,0,0,1-.273.078.54.54,0,0,1-.276-.072.569.569,0,0,1-.209-.2l-.225-.369.932-.567.225.371A.564.564,0,0,1,411.038,345.966Zm-.778.433a.489.489,0,0,0,.242.062.458.458,0,0,0,.24-.069.465.465,0,0,0,.173-.183.5.5,0,0,0-.018-.491l-.19-.313-.823.5.191.315A.491.491,0,0,0,410.26,346.4Z" transform="translate(-385.026 -338.88)" fill="#fff"/>
          <path id="Path_73" data-name="Path 73" d="M413.76,351.93a.429.429,0,0,0,.237.5.388.388,0,0,0,.3-.032l.586-.279.028.059-.586.278a.453.453,0,0,1-.348.037.508.508,0,0,1-.279-.587.45.45,0,0,1,.248-.247l.586-.279.029.059-.586.278A.386.386,0,0,0,413.76,351.93Z" transform="translate(-388.091 -343.673)" fill="#fff"/>
          <path id="Path_74" data-name="Path 74" d="M417.311,358.576a.5.5,0,0,0-.4-.511.48.48,0,0,0-.461.166.5.5,0,0,0-.106.231.492.492,0,0,0,.022.258.5.5,0,0,0,.1.162.514.514,0,0,0,.147.116l-.029.054a.579.579,0,0,1-.166-.129.565.565,0,0,1-.015-.734.543.543,0,0,1,.521-.188.569.569,0,0,1,.458.573.581.581,0,0,1-.043.2l-.06-.02A.512.512,0,0,0,417.311,358.576Z" transform="translate(-390.139 -348.897)" fill="#fff"/>
          <path id="Path_75" data-name="Path 75" d="M418.8,362.967l.208.775-.062.017-.1-.356-.992.266-.017-.063.991-.266-.1-.356Z" transform="translate(-391.387 -352.83)" fill="#fff"/>
        </g>
      </g>
      <g id="Group_87" data-name="Group 87" transform="translate(250.23 293.438)">
        <g id="Group_86" data-name="Group 86" transform="translate(0 0)">
          <path id="Path_76" data-name="Path 76" d="M416.723,395.338a.378.378,0,0,1-.045-.283.461.461,0,0,1,.282-.27.233.233,0,0,1,.007-.031.57.57,0,0,1,.4-.4.544.544,0,0,1,.533.148.553.553,0,0,1,.138.252.577.577,0,0,1-.151.546.555.555,0,0,1-.248.145.525.525,0,0,1-.286,0,.538.538,0,0,1-.224-.124.56.56,0,0,1-.143-.212.552.552,0,0,1-.035-.253.652.652,0,0,0-.143.1.261.261,0,0,0-.07.113.35.35,0,0,0,.043.244Zm.657-.915a.5.5,0,0,0-.221.127.5.5,0,0,0-.133.48.5.5,0,0,0,.123.223.471.471,0,0,0,.218.13.461.461,0,0,0,.253,0,.5.5,0,0,0,.23-.83.479.479,0,0,0-.471-.131Z" transform="translate(-390.43 -394.338)" fill="#fff"/>
          <path id="Path_77" data-name="Path 77" d="M416.1,401.32a.429.429,0,0,0-.2.514.387.387,0,0,0,.227.2l.6.238-.024.061-.6-.238a.452.452,0,0,1-.265-.229.507.507,0,0,1,.239-.6.45.45,0,0,1,.349.013l.6.238-.024.061-.6-.238A.387.387,0,0,0,416.1,401.32Z" transform="translate(-389.747 -399.784)" fill="#fff"/>
          <path id="Path_78" data-name="Path 78" d="M412.464,406.656l.341.014.29-.569-.213-.266.033-.064.747.936-.032.063-1.2-.05Zm.677-.5-.264.517.7.031Z" transform="translate(-387.083 -403.375)" fill="#fff"/>
          <path id="Path_79" data-name="Path 79" d="M411.417,412.246l-.034.056-.874-.54-.255.413-.055-.034.289-.468Z" transform="translate(-385.319 -408.039)" fill="#fff"/>
          <path id="Path_80" data-name="Path 80" d="M409.949,415.979l-.037.054-.893-.626.037-.053Z" transform="translate(-384.385 -410.948)" fill="#fff"/>
          <path id="Path_81" data-name="Path 81" d="M407.894,418.75l-.5.628-.05-.04.228-.289-.8-.638.041-.051.8.638.229-.288Z" transform="translate(-382.608 -413.325)" fill="#fff"/>
          <path id="Path_82" data-name="Path 82" d="M404.057,423.216l-.213-.786-.292-.272.044-.047.29.27.806.153-.048.051-.72-.126.181.705Z" transform="translate(-380.064 -416.289)" fill="#fff"/>
          <path id="Path_83" data-name="Path 83" d="M398.061,428.071a.33.33,0,0,1-.253-.135.343.343,0,0,1-.089-.279.456.456,0,0,1,.178-.272l.245-.2-.232-.28.051-.042.7.84-.3.245A.464.464,0,0,1,398.061,428.071Zm-.277-.408a.277.277,0,0,0,.071.232.268.268,0,0,0,.212.11.408.408,0,0,0,.253-.11l.244-.2-.382-.462-.244.2A.4.4,0,0,0,397.784,427.663Z" transform="translate(-375.451 -420.042)" fill="#fff"/>
          <path id="Path_84" data-name="Path 84" d="M391.395,430.747l.421.16a.573.573,0,0,1,.072-.057l.264-.181-.205-.3.054-.037.615.9-.318.217a.47.47,0,0,1-.311.1.329.329,0,0,1-.24-.157.364.364,0,0,1-.072-.227.346.346,0,0,1,.1-.214l-.44-.16Zm.528.157a.4.4,0,0,0-.174.214.279.279,0,0,0,.05.238.269.269,0,0,0,.2.129.406.406,0,0,0,.262-.086l.265-.181-.338-.495Z" transform="translate(-370.405 -422.786)" fill="#fff"/>
          <path id="Path_85" data-name="Path 85" d="M386.759,435.4a.556.556,0,0,1-.277-.077.543.543,0,0,1-.265-.486.57.57,0,0,1,.859-.468.534.534,0,0,1,.2.207.524.524,0,0,1,.066.279.554.554,0,0,1-.085.275.579.579,0,0,1-.5.271Zm.441-.3a.5.5,0,0,0,.075-.243.48.48,0,0,0-.234-.429.5.5,0,0,0-.245-.07.5.5,0,0,0-.437.238.5.5,0,0,0-.074.244.48.48,0,0,0,.234.43.5.5,0,0,0,.682-.17Z" transform="translate(-366.364 -425.915)" fill="#fff"/>
          <path id="Path_86" data-name="Path 86" d="M380.5,437.923a.547.547,0,0,1-.264-.105.541.541,0,0,1-.21-.507.541.541,0,0,1,.113-.261.57.57,0,0,1,.233-.175l.4-.166.418,1.007-.4.166A.566.566,0,0,1,380.5,437.923Zm-.309-.835a.491.491,0,0,0-.1.23.454.454,0,0,0,.031.248.461.461,0,0,0,.154.2.5.5,0,0,0,.487.057l.339-.14-.369-.889-.34.141A.488.488,0,0,0,380.194,437.088Z" transform="translate(-361.468 -427.826)" fill="#fff"/>
          <path id="Path_87" data-name="Path 87" d="M374.635,439.642a.43.43,0,0,0-.529.158.387.387,0,0,0-.014.3l.186.622-.063.018-.185-.622a.454.454,0,0,1,.016-.349.507.507,0,0,1,.623-.185.448.448,0,0,1,.205.283l.186.622-.063.019-.185-.622A.387.387,0,0,0,374.635,439.642Z" transform="translate(-356.71 -430.063)" fill="#fff"/>
          <path id="Path_88" data-name="Path 88" d="M367.9,442.172a.489.489,0,0,0,.189,0,.5.5,0,0,0,.233-.112.493.493,0,0,0,.145-.209.48.48,0,0,0-.093-.481.5.5,0,0,0-.213-.141.505.505,0,0,0-.433.052.525.525,0,0,0-.137.128l-.048-.037a.569.569,0,0,1,.153-.144.564.564,0,0,1,.728.1.545.545,0,0,1,.105.544.569.569,0,0,1-.636.364.59.59,0,0,1-.195-.073l.029-.057A.509.509,0,0,0,367.9,442.172Z" transform="translate(-351.606 -431.326)" fill="#fff"/>
          <path id="Path_89" data-name="Path 89" d="M363.846,442.951l-.8.086-.007-.064.366-.039-.11-1.021.065-.007.11,1.021.366-.039Z" transform="translate(-348.047 -431.934)" fill="#fff"/>
          <path id="Path_90" data-name="Path 90" d="M347.313,440.741a.377.377,0,0,1,.273-.087.459.459,0,0,1,.309.238l.032,0a.569.569,0,0,1,.453.333.544.544,0,0,1-.066.549.573.573,0,0,1-.971-.116.543.543,0,0,1,.047-.523.564.564,0,0,1,.432-.246.662.662,0,0,0-.125-.126.264.264,0,0,0-.123-.052.347.347,0,0,0-.234.079Zm1,.512a.5.5,0,0,0-.159-.2.5.5,0,0,0-.494-.059.5.5,0,0,0-.2.156.479.479,0,0,0-.058.486.5.5,0,0,0,.855.1.479.479,0,0,0,.058-.486Z" transform="translate(-335.602 -430.943)" fill="#fff"/>
          <path id="Path_91" data-name="Path 91" d="M341.474,440.849a.429.429,0,0,0-.539-.122.387.387,0,0,0-.159.254l-.143.633-.064-.014.143-.633a.45.45,0,0,1,.185-.3.432.432,0,0,1,.343-.043.437.437,0,0,1,.292.187.45.45,0,0,1,.04.347l-.143.633-.064-.014.143-.633A.387.387,0,0,0,341.474,440.849Z" transform="translate(-330.285 -430.911)" fill="#fff"/>
          <path id="Path_92" data-name="Path 92" d="M335.678,438.359l.038.34.606.2.23-.251.068.022-.81.882-.067-.022-.134-1.192Zm.6.592-.552-.181.078.7Z" transform="translate(-326.366 -429.113)" fill="#fff"/>
          <path id="Path_93" data-name="Path 93" d="M331.714,437.919l-.06-.025.4-.946-.447-.189.025-.059.508.214Z" transform="translate(-323.201 -427.819)" fill="#fff"/>
          <path id="Path_94" data-name="Path 94" d="M327.6,436.789l-.059-.029.481-.979.059.029Z" transform="translate(-319.986 -427.093)" fill="#fff"/>
          <path id="Path_95" data-name="Path 95" d="M323.15,435.2l-.7-.4.032-.055.32.182.507-.893.057.033-.507.893.321.182Z" transform="translate(-315.967 -425.712)" fill="#fff"/>
          <path id="Path_96" data-name="Path 96" d="M317.735,432.072l.744-.331.224-.331.053.036-.222.328-.028.82-.058-.039.015-.731-.67.287Z" transform="translate(-312.238 -423.639)" fill="#fff"/>
          <path id="Path_97" data-name="Path 97" d="M311.561,427.364a.33.33,0,0,1,.094-.271.344.344,0,0,1,.262-.131.458.458,0,0,1,.3.135l.238.211.242-.272.049.044-.724.815-.287-.255A.461.461,0,0,1,311.561,427.364Zm.361-.336a.277.277,0,0,0-.218.105.265.265,0,0,0-.076.226.408.408,0,0,0,.147.234l.237.21.4-.448-.237-.21A.4.4,0,0,0,311.922,427.028Z" transform="translate(-307.357 -420.123)" fill="#fff"/>
          <path id="Path_98" data-name="Path 98" d="M308.053,420.963l-.094.44a.6.6,0,0,1,.068.063l.218.234.266-.248.045.048-.8.745-.263-.282a.469.469,0,0,1-.145-.292.328.328,0,0,1,.118-.262.365.365,0,0,1,.214-.106.347.347,0,0,1,.226.062l.091-.46Zm-.074.546a.4.4,0,0,0-.238-.14.276.276,0,0,0-.227.086.27.27,0,0,0-.1.218.406.406,0,0,0,.125.245l.22.235.437-.409Z" transform="translate(-304.031 -415.336)" fill="#fff"/>
          <path id="Path_99" data-name="Path 99" d="M303.049,417.112a.559.559,0,0,1,.034-.286.544.544,0,0,1,.44-.335.57.57,0,0,1,.593.778.533.533,0,0,1-.174.228.525.525,0,0,1-.266.107.553.553,0,0,1-.284-.042.576.576,0,0,1-.344-.45Zm.367.39a.5.5,0,0,0,.251.037.478.478,0,0,0,.389-.3.5.5,0,0,0,.032-.253.5.5,0,0,0-.3-.4.5.5,0,0,0-.252-.036.48.48,0,0,0-.389.3.5.5,0,0,0,.271.648Z" transform="translate(-300.626 -411.844)" fill="#fff"/>
          <path id="Path_100" data-name="Path 100" d="M299.2,411.378a.546.546,0,0,1,.064-.277.533.533,0,0,1,.2-.207.527.527,0,0,1,.273-.078.547.547,0,0,1,.276.072.573.573,0,0,1,.209.2l.225.369-.932.567-.225-.371A.564.564,0,0,1,299.2,411.378Zm.778-.433a.485.485,0,0,0-.243-.062.456.456,0,0,0-.24.069.461.461,0,0,0-.173.183.5.5,0,0,0,.018.491l.191.313.822-.5-.191-.314A.486.486,0,0,0,299.977,410.946Z" transform="translate(-297.588 -407.362)" fill="#fff"/>
          <path id="Path_101" data-name="Path 101" d="M296.5,405.714a.429.429,0,0,0-.237-.5.386.386,0,0,0-.3.032l-.586.279-.028-.059.586-.279a.453.453,0,0,1,.348-.037.507.507,0,0,1,.279.587.45.45,0,0,1-.248.247l-.586.278-.028-.059.586-.279A.385.385,0,0,0,296.5,405.714Z" transform="translate(-294.55 -402.868)" fill="#fff"/>
          <path id="Path_102" data-name="Path 102" d="M293.433,399.337a.482.482,0,0,0,.029.187.5.5,0,0,0,.375.324.48.48,0,0,0,.461-.166.5.5,0,0,0-.012-.652.514.514,0,0,0-.147-.116l.029-.053a.568.568,0,0,1,.166.129.565.565,0,0,1,.015.734.543.543,0,0,1-.521.188.565.565,0,0,1-.425-.366.553.553,0,0,1-.033-.208.581.581,0,0,1,.043-.2l.06.02A.5.5,0,0,0,293.433,399.337Z" transform="translate(-292.982 -397.913)" fill="#fff"/>
          <path id="Path_103" data-name="Path 103" d="M291.723,395.961l-.208-.774.062-.017.1.356.991-.266.017.063-.992.266.1.356Z" transform="translate(-291.515 -394.996)" fill="#fff"/>
        </g>
      </g>
      <circle id="Ellipse_15" data-name="Ellipse 15" cx="0.501" cy="0.501" r="0.501" transform="translate(277.119 289.915)" fill="#fff"/>
    </g>
  </g>
</symbol>


<symbol xmlns="http://www.w3.org/2000/svg" id="payment_secure_icon" viewBox="0 0 27 33">
  <g id="payment_scr" transform="translate(-1007 -691)">
    <path id="Icon_feather-shield" data-name="Icon feather-shield" d="M18,33s12-6,12-15V7.5L18,3,6,7.5V18C6,27,18,33,18,33Z" transform="translate(1002.5 689.5)" fill="#348b09" stroke="#256b02" stroke-linecap="round" stroke-linejoin="round" stroke-width="3"/>
    <path id="Path_104" data-name="Path 104" d="M7166.625,705l4.707,4.707,7.446-7.446" transform="translate(-6152.125 1.239)" fill="none" stroke="#fff" stroke-linecap="round" stroke-width="2"/>
  </g>
</symbol>


<symbol xmlns="http://www.w3.org/2000/svg" id="arrow_white_icon" viewBox="0 0 17.299 9.99">
  <g id="arrow-white" transform="translate(-399.5 -1163.924)">
    <path id="Path_7977" data-name="Path 7977" d="M1825.5,19328.834h14.167" transform="translate(-1425 -18160)" fill="none" stroke="#fff" stroke-linecap="round" stroke-width="2"/>
    <path id="Path_7978" data-name="Path 7978" d="M1835.5,19325.334l3.833,3.332-3.833,3.834" transform="translate(-1424 -18160)" fill="none" stroke="#fff" stroke-linecap="round" stroke-width="2"/>
  </g>
</symbol>

<symbol xmlns="http://www.w3.org/2000/svg" id="play_button" viewBox="0 0 100 100">
  <g id="play-button" transform="translate(-588 -3905)">
    <circle id="Ellipse_46" data-name="Ellipse 46" cx="50" cy="50" r="50" transform="translate(588 3905)" fill="#fff"/>
    <path id="Polygon_2" data-name="Polygon 2" d="M18.041,5.952a4,4,0,0,1,6.917,0L39.508,30.99A4,4,0,0,1,36.049,37H6.951a4,4,0,0,1-3.459-6.01Z" transform="translate(661 3933) rotate(90)" fill="#fff"/>
  </g>
</symbol>


<symbol xmlns="http://www.w3.org/2000/svg" id="filter_icon" viewBox="0 0 13.151 13.821">
  <path id="Icon_metro-filter" data-name="Icon metro-filter" d="M9.146,1.928c-3.632,0-6.576.967-6.576,2.159v1.3L7.5,10.566v4.319c0,.477.736.864,1.644.864s1.644-.387,1.644-.864V10.566l4.932-5.183v-1.3C15.722,2.895,12.778,1.928,9.146,1.928ZM3.783,3.8A5.434,5.434,0,0,1,5.032,3.3a15.467,15.467,0,0,1,4.114-.5,15.467,15.467,0,0,1,4.114.5A5.435,5.435,0,0,1,14.51,3.8a1.441,1.441,0,0,1,.363.286,1.442,1.442,0,0,1-.363.286,5.435,5.435,0,0,1-1.249.506,15.466,15.466,0,0,1-4.114.5,15.467,15.467,0,0,1-4.114-.5,5.434,5.434,0,0,1-1.249-.506,1.442,1.442,0,0,1-.363-.286A1.442,1.442,0,0,1,3.783,3.8Z" transform="translate(-2.571 -1.928)"/>
</symbol>
















 











</svg>